<mxfile host="app.diagrams.net" modified="2022-10-16T01:32:43.880Z" agent="5.0 (Macintosh; Intel Mac OS X 10_14_0) AppleWebKit/537.36 (KHTML, like Gecko) Chrome/106.0.0.0 Safari/537.36" etag="Y6SWvBqQnDl7aeyKYKHL" version="20.4.0" type="github">
  <diagram id="Zr-wBlvtaV92m9Iq6B_k" name="第 1 页">
    <mxGraphModel dx="1174" dy="518" grid="1" gridSize="10" guides="1" tooltips="1" connect="1" arrows="1" fold="1" page="1" pageScale="1" pageWidth="827" pageHeight="1169" math="0" shadow="0">
      <root>
        <mxCell id="0" />
        <mxCell id="1" parent="0" />
        <mxCell id="bUJXScGQWKL7edtIyS3--2" style="edgeStyle=orthogonalEdgeStyle;rounded=0;orthogonalLoop=1;jettySize=auto;html=1;" edge="1" parent="1" source="bUJXScGQWKL7edtIyS3--1">
          <mxGeometry relative="1" as="geometry">
            <mxPoint x="250" y="190" as="targetPoint" />
          </mxGeometry>
        </mxCell>
        <mxCell id="bUJXScGQWKL7edtIyS3--1" value="upload" style="rounded=0;whiteSpace=wrap;html=1;" vertex="1" parent="1">
          <mxGeometry x="70" y="160" width="120" height="60" as="geometry" />
        </mxCell>
        <mxCell id="bUJXScGQWKL7edtIyS3--5" value="" style="edgeStyle=orthogonalEdgeStyle;rounded=0;orthogonalLoop=1;jettySize=auto;html=1;" edge="1" parent="1" source="bUJXScGQWKL7edtIyS3--3" target="bUJXScGQWKL7edtIyS3--4">
          <mxGeometry relative="1" as="geometry" />
        </mxCell>
        <mxCell id="bUJXScGQWKL7edtIyS3--3" value="scan" style="rounded=0;whiteSpace=wrap;html=1;" vertex="1" parent="1">
          <mxGeometry x="250" y="160" width="120" height="60" as="geometry" />
        </mxCell>
        <mxCell id="bUJXScGQWKL7edtIyS3--4" value="watch" style="rounded=0;whiteSpace=wrap;html=1;" vertex="1" parent="1">
          <mxGeometry x="450" y="160" width="120" height="60" as="geometry" />
        </mxCell>
        <mxCell id="bUJXScGQWKL7edtIyS3--7" value="&lt;br&gt;1.https://www.jfrog.com/confluence/display/JFROG/Xray+REST+API#XrayRESTAPI-ScanArtifact&lt;br&gt;&lt;br&gt;2.watch" style="text;html=1;strokeColor=none;fillColor=none;spacing=5;spacingTop=-20;whiteSpace=wrap;overflow=hidden;rounded=0;" vertex="1" parent="1">
          <mxGeometry x="150" y="350" width="490" height="120" as="geometry" />
        </mxCell>
      </root>
    </mxGraphModel>
  </diagram>
</mxfile>
